<mxfile host="app.diagrams.net" modified="2024-02-19T15:48:16.944Z" agent="Mozilla/5.0 (Windows NT 10.0; Win64; x64) AppleWebKit/537.36 (KHTML, like Gecko) Chrome/96.0.4664.110 Safari/537.36 OPR/82.0.4227.44" etag="UnPoiDdf8RPmrPAJXbks" version="23.1.5" type="github">
  <diagram name="Página-1" id="XRWX49vIvzLSB5t9minx">
    <mxGraphModel dx="993" dy="702" grid="1" gridSize="10" guides="1" tooltips="1" connect="1" arrows="1" fold="1" page="1" pageScale="1" pageWidth="827" pageHeight="1169" math="0" shadow="0">
      <root>
        <mxCell id="0" />
        <mxCell id="1" parent="0" />
        <mxCell id="IrCJk_Dz5uE3Cf6bxV_d-11" value="&lt;font style=&quot;font-size: 24px;&quot;&gt;ALUNO&lt;/font&gt;" style="rounded=0;whiteSpace=wrap;html=1;" vertex="1" parent="1">
          <mxGeometry x="364" y="480" width="120" height="60" as="geometry" />
        </mxCell>
        <mxCell id="IrCJk_Dz5uE3Cf6bxV_d-12" value="" style="endArrow=none;html=1;rounded=0;entryX=0;entryY=0;entryDx=0;entryDy=0;exitX=0.5;exitY=1;exitDx=0;exitDy=0;" edge="1" parent="1" source="IrCJk_Dz5uE3Cf6bxV_d-16" target="IrCJk_Dz5uE3Cf6bxV_d-11">
          <mxGeometry width="50" height="50" relative="1" as="geometry">
            <mxPoint x="330" y="410" as="sourcePoint" />
            <mxPoint x="450" y="540" as="targetPoint" />
          </mxGeometry>
        </mxCell>
        <mxCell id="IrCJk_Dz5uE3Cf6bxV_d-13" value="Nome" style="ellipse;whiteSpace=wrap;html=1;" vertex="1" parent="1">
          <mxGeometry x="180" y="485" width="100" height="50" as="geometry" />
        </mxCell>
        <mxCell id="IrCJk_Dz5uE3Cf6bxV_d-14" value="" style="endArrow=none;html=1;rounded=0;exitX=0.5;exitY=1;exitDx=0;exitDy=0;entryX=0.5;entryY=0;entryDx=0;entryDy=0;" edge="1" parent="1" source="IrCJk_Dz5uE3Cf6bxV_d-17" target="IrCJk_Dz5uE3Cf6bxV_d-11">
          <mxGeometry width="50" height="50" relative="1" as="geometry">
            <mxPoint x="484" y="410" as="sourcePoint" />
            <mxPoint x="450" y="540" as="targetPoint" />
          </mxGeometry>
        </mxCell>
        <mxCell id="IrCJk_Dz5uE3Cf6bxV_d-15" value="Idade" style="ellipse;whiteSpace=wrap;html=1;align=center;dashed=1;" vertex="1" parent="1">
          <mxGeometry x="550" y="595" width="100" height="40" as="geometry" />
        </mxCell>
        <mxCell id="IrCJk_Dz5uE3Cf6bxV_d-16" value="&lt;span style=&quot;border-bottom: 1px dotted&quot;&gt;NumMeC&lt;/span&gt;" style="ellipse;whiteSpace=wrap;html=1;align=center;" vertex="1" parent="1">
          <mxGeometry x="210" y="360" width="100" height="40" as="geometry" />
        </mxCell>
        <mxCell id="IrCJk_Dz5uE3Cf6bxV_d-17" value="NumTelef" style="ellipse;shape=doubleEllipse;whiteSpace=wrap;html=1;" vertex="1" parent="1">
          <mxGeometry x="374" y="340" width="100" height="60" as="geometry" />
        </mxCell>
        <mxCell id="IrCJk_Dz5uE3Cf6bxV_d-18" value="" style="endArrow=none;html=1;rounded=0;exitX=1;exitY=0.5;exitDx=0;exitDy=0;entryX=0;entryY=0.5;entryDx=0;entryDy=0;" edge="1" parent="1" source="IrCJk_Dz5uE3Cf6bxV_d-13" target="IrCJk_Dz5uE3Cf6bxV_d-11">
          <mxGeometry width="50" height="50" relative="1" as="geometry">
            <mxPoint x="430" y="540" as="sourcePoint" />
            <mxPoint x="480" y="490" as="targetPoint" />
          </mxGeometry>
        </mxCell>
        <mxCell id="IrCJk_Dz5uE3Cf6bxV_d-19" value="Sexo" style="ellipse;whiteSpace=wrap;html=1;" vertex="1" parent="1">
          <mxGeometry x="190" y="590" width="100" height="50" as="geometry" />
        </mxCell>
        <mxCell id="IrCJk_Dz5uE3Cf6bxV_d-20" value="" style="endArrow=none;html=1;rounded=0;exitX=0;exitY=1;exitDx=0;exitDy=0;entryX=1;entryY=0;entryDx=0;entryDy=0;" edge="1" parent="1" source="IrCJk_Dz5uE3Cf6bxV_d-11" target="IrCJk_Dz5uE3Cf6bxV_d-19">
          <mxGeometry width="50" height="50" relative="1" as="geometry">
            <mxPoint x="430" y="540" as="sourcePoint" />
            <mxPoint x="480" y="490" as="targetPoint" />
          </mxGeometry>
        </mxCell>
        <mxCell id="IrCJk_Dz5uE3Cf6bxV_d-21" value="DataNasc" style="ellipse;whiteSpace=wrap;html=1;" vertex="1" parent="1">
          <mxGeometry x="374" y="595" width="100" height="50" as="geometry" />
        </mxCell>
        <mxCell id="IrCJk_Dz5uE3Cf6bxV_d-22" value="" style="endArrow=none;html=1;rounded=0;exitX=0.5;exitY=1;exitDx=0;exitDy=0;entryX=0.5;entryY=0;entryDx=0;entryDy=0;" edge="1" parent="1" source="IrCJk_Dz5uE3Cf6bxV_d-11" target="IrCJk_Dz5uE3Cf6bxV_d-21">
          <mxGeometry width="50" height="50" relative="1" as="geometry">
            <mxPoint x="390" y="690" as="sourcePoint" />
            <mxPoint x="430" y="590" as="targetPoint" />
          </mxGeometry>
        </mxCell>
        <mxCell id="IrCJk_Dz5uE3Cf6bxV_d-23" value="" style="endArrow=none;html=1;rounded=0;exitX=1;exitY=1;exitDx=0;exitDy=0;entryX=0.5;entryY=0;entryDx=0;entryDy=0;" edge="1" parent="1" source="IrCJk_Dz5uE3Cf6bxV_d-11" target="IrCJk_Dz5uE3Cf6bxV_d-15">
          <mxGeometry width="50" height="50" relative="1" as="geometry">
            <mxPoint x="390" y="690" as="sourcePoint" />
            <mxPoint x="440" y="640" as="targetPoint" />
          </mxGeometry>
        </mxCell>
        <mxCell id="IrCJk_Dz5uE3Cf6bxV_d-24" value="Habilitação" style="ellipse;shape=doubleEllipse;whiteSpace=wrap;html=1;" vertex="1" parent="1">
          <mxGeometry x="550" y="350" width="100" height="60" as="geometry" />
        </mxCell>
        <mxCell id="IrCJk_Dz5uE3Cf6bxV_d-25" value="" style="endArrow=none;html=1;rounded=0;exitX=0.5;exitY=1;exitDx=0;exitDy=0;entryX=1;entryY=0;entryDx=0;entryDy=0;" edge="1" parent="1" source="IrCJk_Dz5uE3Cf6bxV_d-24" target="IrCJk_Dz5uE3Cf6bxV_d-11">
          <mxGeometry width="50" height="50" relative="1" as="geometry">
            <mxPoint x="390" y="390" as="sourcePoint" />
            <mxPoint x="440" y="340" as="targetPoint" />
          </mxGeometry>
        </mxCell>
        <mxCell id="IrCJk_Dz5uE3Cf6bxV_d-26" value="" style="endArrow=none;html=1;rounded=0;exitX=1;exitY=0.5;exitDx=0;exitDy=0;" edge="1" parent="1" source="IrCJk_Dz5uE3Cf6bxV_d-11">
          <mxGeometry width="50" height="50" relative="1" as="geometry">
            <mxPoint x="390" y="390" as="sourcePoint" />
            <mxPoint x="600" y="510" as="targetPoint" />
          </mxGeometry>
        </mxCell>
        <mxCell id="IrCJk_Dz5uE3Cf6bxV_d-27" value="Morada" style="ellipse;whiteSpace=wrap;html=1;" vertex="1" parent="1">
          <mxGeometry x="600" y="485" width="100" height="50" as="geometry" />
        </mxCell>
        <mxCell id="IrCJk_Dz5uE3Cf6bxV_d-29" value="" style="endArrow=none;html=1;rounded=0;exitX=0.5;exitY=0;exitDx=0;exitDy=0;entryX=0;entryY=1;entryDx=0;entryDy=0;" edge="1" parent="1" source="IrCJk_Dz5uE3Cf6bxV_d-27" target="IrCJk_Dz5uE3Cf6bxV_d-34">
          <mxGeometry width="50" height="50" relative="1" as="geometry">
            <mxPoint x="660" y="485" as="sourcePoint" />
            <mxPoint x="700" y="440" as="targetPoint" />
          </mxGeometry>
        </mxCell>
        <mxCell id="IrCJk_Dz5uE3Cf6bxV_d-30" value="" style="endArrow=none;html=1;rounded=0;exitX=1;exitY=0;exitDx=0;exitDy=0;entryX=0;entryY=0.5;entryDx=0;entryDy=0;" edge="1" parent="1" source="IrCJk_Dz5uE3Cf6bxV_d-27" target="IrCJk_Dz5uE3Cf6bxV_d-36">
          <mxGeometry width="50" height="50" relative="1" as="geometry">
            <mxPoint x="710" y="510" as="sourcePoint" />
            <mxPoint x="740" y="470" as="targetPoint" />
          </mxGeometry>
        </mxCell>
        <mxCell id="IrCJk_Dz5uE3Cf6bxV_d-31" value="" style="endArrow=none;html=1;rounded=0;exitX=1;exitY=0.5;exitDx=0;exitDy=0;entryX=0;entryY=0.5;entryDx=0;entryDy=0;" edge="1" parent="1" source="IrCJk_Dz5uE3Cf6bxV_d-27" target="IrCJk_Dz5uE3Cf6bxV_d-37">
          <mxGeometry width="50" height="50" relative="1" as="geometry">
            <mxPoint x="720" y="520" as="sourcePoint" />
            <mxPoint x="750" y="500" as="targetPoint" />
          </mxGeometry>
        </mxCell>
        <mxCell id="IrCJk_Dz5uE3Cf6bxV_d-32" value="" style="endArrow=none;html=1;rounded=0;exitX=1;exitY=1;exitDx=0;exitDy=0;entryX=0;entryY=0.5;entryDx=0;entryDy=0;" edge="1" parent="1" source="IrCJk_Dz5uE3Cf6bxV_d-27" target="IrCJk_Dz5uE3Cf6bxV_d-38">
          <mxGeometry width="50" height="50" relative="1" as="geometry">
            <mxPoint x="730" y="530" as="sourcePoint" />
            <mxPoint x="750" y="540" as="targetPoint" />
          </mxGeometry>
        </mxCell>
        <mxCell id="IrCJk_Dz5uE3Cf6bxV_d-33" value="" style="endArrow=none;html=1;rounded=0;exitX=0.5;exitY=1;exitDx=0;exitDy=0;entryX=0;entryY=0.5;entryDx=0;entryDy=0;" edge="1" parent="1" source="IrCJk_Dz5uE3Cf6bxV_d-27" target="IrCJk_Dz5uE3Cf6bxV_d-39">
          <mxGeometry width="50" height="50" relative="1" as="geometry">
            <mxPoint x="740" y="540" as="sourcePoint" />
            <mxPoint x="750" y="590" as="targetPoint" />
          </mxGeometry>
        </mxCell>
        <mxCell id="IrCJk_Dz5uE3Cf6bxV_d-34" value="Rua" style="ellipse;whiteSpace=wrap;html=1;" vertex="1" parent="1">
          <mxGeometry x="770" y="370" width="100" height="50" as="geometry" />
        </mxCell>
        <mxCell id="IrCJk_Dz5uE3Cf6bxV_d-36" value="Num" style="ellipse;whiteSpace=wrap;html=1;" vertex="1" parent="1">
          <mxGeometry x="780" y="430" width="100" height="50" as="geometry" />
        </mxCell>
        <mxCell id="IrCJk_Dz5uE3Cf6bxV_d-37" value="Andar?" style="ellipse;whiteSpace=wrap;html=1;" vertex="1" parent="1">
          <mxGeometry x="790" y="485" width="100" height="50" as="geometry" />
        </mxCell>
        <mxCell id="IrCJk_Dz5uE3Cf6bxV_d-38" value="Localidade" style="ellipse;whiteSpace=wrap;html=1;" vertex="1" parent="1">
          <mxGeometry x="780" y="540" width="100" height="50" as="geometry" />
        </mxCell>
        <mxCell id="IrCJk_Dz5uE3Cf6bxV_d-39" value="CodPostal" style="ellipse;whiteSpace=wrap;html=1;" vertex="1" parent="1">
          <mxGeometry x="770" y="595" width="100" height="50" as="geometry" />
        </mxCell>
        <mxCell id="IrCJk_Dz5uE3Cf6bxV_d-40" value="" style="endArrow=none;html=1;rounded=0;exitX=0.5;exitY=0;exitDx=0;exitDy=0;" edge="1" parent="1" source="IrCJk_Dz5uE3Cf6bxV_d-24">
          <mxGeometry width="50" height="50" relative="1" as="geometry">
            <mxPoint x="620" y="350" as="sourcePoint" />
            <mxPoint x="600" y="290" as="targetPoint" />
          </mxGeometry>
        </mxCell>
        <mxCell id="IrCJk_Dz5uE3Cf6bxV_d-41" value="" style="endArrow=none;html=1;rounded=0;exitX=1;exitY=0;exitDx=0;exitDy=0;entryX=0;entryY=1;entryDx=0;entryDy=0;" edge="1" parent="1" source="IrCJk_Dz5uE3Cf6bxV_d-24" target="IrCJk_Dz5uE3Cf6bxV_d-44">
          <mxGeometry width="50" height="50" relative="1" as="geometry">
            <mxPoint x="640" y="360" as="sourcePoint" />
            <mxPoint x="680" y="300" as="targetPoint" />
          </mxGeometry>
        </mxCell>
        <mxCell id="IrCJk_Dz5uE3Cf6bxV_d-42" value="" style="endArrow=none;html=1;rounded=0;exitX=1;exitY=0.5;exitDx=0;exitDy=0;entryX=0;entryY=0.5;entryDx=0;entryDy=0;" edge="1" parent="1" source="IrCJk_Dz5uE3Cf6bxV_d-24" target="IrCJk_Dz5uE3Cf6bxV_d-43">
          <mxGeometry width="50" height="50" relative="1" as="geometry">
            <mxPoint x="660" y="400" as="sourcePoint" />
            <mxPoint x="720" y="350" as="targetPoint" />
          </mxGeometry>
        </mxCell>
        <mxCell id="IrCJk_Dz5uE3Cf6bxV_d-43" value="Instituição" style="ellipse;whiteSpace=wrap;html=1;" vertex="1" parent="1">
          <mxGeometry x="720" y="310" width="100" height="50" as="geometry" />
        </mxCell>
        <mxCell id="IrCJk_Dz5uE3Cf6bxV_d-44" value="Ano" style="ellipse;whiteSpace=wrap;html=1;" vertex="1" parent="1">
          <mxGeometry x="660" y="260" width="100" height="50" as="geometry" />
        </mxCell>
        <mxCell id="IrCJk_Dz5uE3Cf6bxV_d-45" value="Grau" style="ellipse;whiteSpace=wrap;html=1;" vertex="1" parent="1">
          <mxGeometry x="550" y="240" width="100" height="50" as="geometry" />
        </mxCell>
      </root>
    </mxGraphModel>
  </diagram>
</mxfile>
